# xmcd
#
# Track frame offsets: 
#        150
#        11913
#        26194
#        41624
#        59748
#        76168
#        91596
#        116730
#        127605
#        151052
#
# Disc length: 2175 seconds
#
# Revision: 1
# Processed by: cddbd v1.5.2PL0 Copyright (c) Steve Scherf et al.
# Submitted via: ExactAudioCopy v0.99pb4
#
DISCID=72087d0a
DTITLE=Various Artist - Classic Blues
DYEAR=2001
DGENRE=Blues
TTITLE0=BB King - Payin' The Cost To Be The Boss
TTITLE1=Ray Charles - Blues Is My Middle Name
TTITLE2=Bo Diddley - Roadrunner
TTITLE3=Lightnin' Hopkins - Shake That Thing
TTITLE4=Memphis Slim - In The Evening When The Sun Goes Down
TTITLE5=Gatemouth Moore - Somebody's Gotta Go
TTITLE6=Roy Brown - Boogie Woogie Blues
TTITLE7=Roy Milton - Information Blues
TTITLE8=Pee Wee Crayton - Blues After Hours
TTITLE9=Memphis Slim - Really Got The Blues
EXTD=
EXTT0=
EXTT1=
EXTT2=
EXTT3=
EXTT4=
EXTT5=
EXTT6=
EXTT7=
EXTT8=
EXTT9=
PLAYORDER=
